<svg
        xmlns="http://www.w3.org/2000/svg"
        xmlns:xlink="http://www.w3.org/1999/xlink"
        width="90px" height="90px">
    <path fill-rule="evenodd"  fill="rgb(254, 218, 50)"
          d="M79.1000,69.1000 L79.1000,49.1000 L69.1000,49.1000 L69.1000,69.1000 L59.1000,69.1000 L59.1000,79.1000 L69.1000,79.1000 L69.1000,89.1000 L59.1000,89.1000 L49.1000,89.1000 L49.1000,69.1000 L39.1000,69.1000 L39.1000,89.1000 L29.1000,89.1000 L19.1000,89.1000 L19.1000,79.1000 L29.1000,79.1000 L29.1000,69.1000 L19.1000,69.1000 L19.1000,49.1000 L9.1000,49.1000 L9.1000,59.1000 L9.1000,69.1000 L-0.000,69.1000 L-0.000,59.1000 L-0.000,49.1000 L-0.000,39.1000 L9.1000,39.1000 L9.1000,29.1000 L19.1000,29.1000 L19.1000,19.1000 L29.1000,19.1000 L29.1000,9.1000 L39.1000,9.1000 L39.1000,19.1000 L49.1000,19.1000 L49.1000,9.1000 L59.1000,9.1000 L59.1000,19.1000 L69.1000,19.1000 L69.1000,29.1000 L79.1000,29.1000 L79.1000,39.1000 L89.1000,39.1000 L89.1000,49.1000 L89.1000,69.1000 L79.1000,69.1000 ZM39.1000,29.1000 L29.1000,29.1000 L29.1000,39.1000 L39.1000,39.1000 L39.1000,29.1000 ZM59.1000,29.1000 L49.1000,29.1000 L49.1000,39.1000 L59.1000,39.1000 L59.1000,29.1000 ZM19.1000,-0.000 L29.1000,-0.000 L29.1000,9.1000 L19.1000,9.1000 L19.1000,-0.000 ZM69.1000,-0.000 L69.1000,9.1000 L59.1000,9.1000 L59.1000,-0.000 L69.1000,-0.000 Z"/>
</svg>
